<svg width="18" height="18" viewBox="0 0 18 18" fill="none" xmlns="http://www.w3.org/2000/svg">
<path fill-rule="evenodd" clip-rule="evenodd" d="M2.00008 8C2.00008 7.21207 2.15527 6.43185 2.4568 5.7039C2.75833 4.97595 3.20028 4.31451 3.75744 3.75736C4.31459 3.20021 4.97602 2.75825 5.70398 2.45672C6.43193 2.15519 7.21215 2 8.00008 2C8.78801 2 9.56822 2.15519 10.2962 2.45672C11.0241 2.75825 11.6856 3.20021 12.2427 3.75736C12.7999 4.31451 13.2418 4.97595 13.5434 5.7039C13.8449 6.43185 14.0001 7.21207 14.0001 8C14.0001 9.5913 13.3679 11.1174 12.2427 12.2426C11.1175 13.3679 9.59138 14 8.00008 14C6.40878 14 4.88265 13.3679 3.75744 12.2426C2.63222 11.1174 2.00008 9.5913 2.00008 8ZM8.00008 4.94163e-08C6.72694 0.000182326 5.47222 0.304218 4.34022 0.886839C3.20821 1.46946 2.2316 2.31384 1.49156 3.3498C0.751517 4.38577 0.26941 5.5834 0.0853069 6.84315C-0.0987963 8.10291 0.0204215 9.38842 0.433052 10.5928C0.845683 11.7973 1.53981 12.8858 2.45774 13.768C3.37568 14.6502 4.49091 15.3006 5.71075 15.6651C6.9306 16.0296 8.21982 16.0977 9.47128 15.8638C10.7227 15.6298 11.9003 15.1006 12.9061 14.32L16.2931 17.707C16.4817 17.8892 16.7343 17.99 16.9965 17.9877C17.2587 17.9854 17.5095 17.8802 17.6949 17.6948C17.8803 17.5094 17.9855 17.2586 17.9878 16.9964C17.99 16.7342 17.8892 16.4816 17.7071 16.293L14.3201 12.906C15.2382 11.7235 15.806 10.307 15.9591 8.81777C16.1121 7.32851 15.8442 5.82619 15.1858 4.48165C14.5273 3.1371 13.5049 2.00429 12.2346 1.21202C10.9643 0.419759 9.49718 -0.00016632 8.00008 4.94163e-08ZM8.00008 12C9.06094 12 10.0784 11.5786 10.8285 10.8284C11.5786 10.0783 12.0001 9.06087 12.0001 8C12.0001 6.93913 11.5786 5.92172 10.8285 5.17157C10.0784 4.42143 9.06094 4 8.00008 4C6.93921 4 5.92179 4.42143 5.17165 5.17157C4.4215 5.92172 4.00008 6.93913 4.00008 8C4.00008 9.06087 4.4215 10.0783 5.17165 10.8284C5.92179 11.5786 6.93921 12 8.00008 12Z" fill="#A1A1A1"/>
</svg>
